# xmcd CD database file
#
# Track frame offsets:
#	150
#	20113
#	51614
#	75680
#	85213
#	110850
#	120846
#	148862
#	156095
#	177319
#	196374
#
# Disc length: 2762 seconds
#
# Revision: 0
# Processed by: cddbd v1.5.2PL0 Copyright (c) Steve Scherf et al.
# Submitted via: CDex 1.79
#
DISCID=9b0ac80b
DTITLE=Collin Vallon - Danse
DYEAR=2017
DGENRE=Jazz
TTITLE0=Sisyphe
TTITLE1=Tsunami
TTITLE2=Smile
TTITLE3=Danse
TTITLE4=L'Onde
TTITLE5=Oort
TTITLE6=Kid
TTITLE7=Reste
TTITLE8=Tinguely
TTITLE9=Morn
TTITLE10=Reste (var.)
EXTD=YEAR: 2017
EXTT0=
EXTT1=
EXTT2=
EXTT3=
EXTT4=
EXTT5=
EXTT6=
EXTT7=
EXTT8=
EXTT9=
EXTT10=
PLAYORDER=
